<svg xmlns="http://www.w3.org/2000/svg" xmlns:xlink="http://www.w3.org/1999/xlink" fill="none" version="1.1" width="95.032470703125" height="82" viewBox="0 0 95.032470703125 82"><g><g><path d="M47.702326288513184,81C69.80464828851319,81,87.81395628851318,63.065117,87.81395628851318,41.037209C87.73953128851318,18.934883,69.80464828851319,1,47.702326288513184,1C25.525580288513183,1,7.590697288513184,18.934883,7.590697288513184,40.962791C7.590697288513184,63.065117,25.525580288513183,81,47.702326288513184,81Z" fill="#F1F3F9" fill-opacity="1"/><path d="M76.75225728851318,69.987534Q88.81395628851318,57.972168,88.81395628851318,41.037212L88.81394828851319,41.033844Q88.75672828851319,24.038717,76.72525728851318,12.022673Q64.68714828851319,0,47.702323288513185,-0.0000025999999999637424Q30.667830288513183,0,18.624034288513183,12.012916Q6.590698538513184,24.015396,6.590697288513184,40.962791Q6.590697288513184,57.959869,18.623579288513184,69.977325Q30.661687288513182,82,47.702326288513184,82Q64.69346128851319,82,76.75225728851318,69.987534ZM86.81394828851319,41.037212L86.81396428851319,41.040577Q86.81275828851318,57.142681,75.34076628851318,68.570602Q63.86729328851318,80,47.702326288513184,80Q31.489363288513182,80,20.036886288513184,68.56221Q8.590697288513184,57.130692,8.590697288513184,40.962791Q8.590699888513184,24.845327,20.036431288513185,13.428944Q31.494755288513183,2,47.702323288513185,1.9999975Q63.859473288513186,2,75.31194928851319,13.437793Q86.75831528851319,24.869488,86.81394828851319,41.037212Z" fill-rule="evenodd" fill="#D6DCE8" fill-opacity="1"/></g><g><path d="M90.19534830017089,46.09767383706665C90.19534830017089,54.65581383706665,83.2744193001709,61.57674683706665,74.64185930017089,61.57674683706665C74.4930253001709,61.57674683706665,73.2279113001709,61.57674683706665,63.9255813001709,61.57674683706665C57.451158300170896,61.57674683706665,47.1069773001709,61.57674683706665,30.5860463001709,61.57674683706665L22.697673300170898,61.57674683706665C12.353488900170898,61.79999783706665,4.093023300170898,53.53953383706665,4.093023300170898,43.56743883706665C4.093023300170898,33.52092783706665,12.427907000170899,25.18604483706665,22.920929300170897,25.70697683706665C31.9255833001709,-2.4232563629333495,73.1534943001709,1.52093033706665,76.6511593001709,30.618604837066652C84.3906993001709,31.58604683706665,90.19534830017089,38.134882837066655,90.19534830017089,46.09767383706665Z" fill="#FFFFFF" fill-opacity="1"/><path d="M86.36174630017089,57.75478983706665Q91.19534830017089,52.93719383706665,91.19534830017089,46.09767783706665Q91.19534830017089,39.76363983706665,87.0769023001709,35.074941837066646Q83.2287123001709,30.69393183706665,77.5440423001709,29.73879283706665Q76.0753993001709,19.45815483706665,68.7131103001709,12.874351537066651Q61.7170853001709,6.61808117506665,51.9440173001709,5.70664298706665Q42.1628703001709,4.79445083706665,34.1063633001709,9.65906523706665Q25.613077300170897,14.78741123706665,22.207212300170898,24.68327583706665Q14.467899300170899,24.56372683706665,8.877921100170898,29.954609837066652Q3.0930233001708984,35.53346883706665,3.0930245501708984,43.56743883706665Q3.0930236001708984,51.51307183706665,8.817139100170898,57.11033483706665Q14.586692300170899,62.75203583706665,22.697673300170898,62.57674683706665L74.6418663001709,62.57674683706665Q81.5237793001709,62.57674683706665,86.36174630017089,57.75478983706665ZM85.5742703001709,36.39482383706665Q89.19534830017089,40.51728683706665,89.19534830017089,46.09767783706665Q89.19534830017089,52.10682583706665,84.9498803001709,56.33823583706665Q80.6972943001709,60.57674683706665,74.6418663001709,60.57674683706665L22.697673300170898,60.57674683706665Q15.383954300170899,60.73435783706665,10.215419300170899,55.68036483706665Q5.093024300170899,50.67148483706665,5.0930246001708985,43.56743883706665Q5.093023300170898,36.38321383706665,10.2662649001709,31.394224837066652Q15.507007300170898,26.34013983706665,22.871345300170898,26.70574383706665L23.6390033001709,26.74385683706665L23.873325300170897,26.011842837066652Q26.983308300170897,16.296362437066648,35.1401503001709,11.371164837066651Q42.6328873001709,6.84696310706665,51.7583063001709,7.698001937066651Q60.875166300170896,8.54824213706665,67.3799153001709,14.36518623706665Q74.4502473001709,20.68790583706665,75.6583003001709,30.73794783706665L75.7515853001709,31.51394083706665L76.5271283001709,31.610883837066652Q81.9697473001709,32.29121083706665,85.5742703001709,36.39482383706665Z" fill-rule="evenodd" fill="#D6DCE8" fill-opacity="1"/></g><g><path d="M76.42790820410156,30.69302326403418C75.83255860410156,30.61860466003418,75.23721030410157,30.61860466003418,74.64186190410156,30.61860466003418C71.59069870410156,30.61860466003418,68.68837310410156,31.51162797003418,66.23255920410156,33.07441856003418" fill-rule="evenodd" fill="#FFFFFF" fill-opacity="1"/></g><g><path d="M74.64186100410156,31.61860460003418Q75.77030090410156,31.61860460003418,76.30387320410156,31.68530106003418L76.55194220410156,29.70074546003418Q75.89481640410156,29.61860472003418,74.64186100410156,29.61860472003418Q72.23709920410157,29.61860472003418,69.93008090410156,30.30160338003418Q67.68077670410156,30.96751568003418,65.69568377410157,32.23075686003418L66.76943463410156,33.91807986003418Q68.51769590410156,32.80555006003418,70.49782800410156,32.21932676003418Q72.52693410410156,31.61860460003418,74.64186100410156,31.61860460003418Z" fill-rule="evenodd" fill="#D6DCE8" fill-opacity="1"/></g><g><path d="M22.920931002905274,25.70697784423828C22.027907762905272,28.386047644238282,21.581396102905273,31.213954444238283,21.581396102905273,34.19069864423828C21.581396102905273,35.38139624423828,21.655814706905275,36.49767584423828,21.804651932905273,37.61395484423828" fill-rule="evenodd" fill="#FFFFFF" fill-opacity="1"/></g><g><path d="M22.581396102905273,34.19069864423828Q22.581396102905273,29.88786034423828,23.869614402905274,26.02320560423828L21.972247662905275,25.39075008423828Q20.581396102905273,29.563304944238283,20.581396102905273,34.19069864423828Q20.581396102905273,36.00591084423828,20.813424052905273,37.74611984423828L22.795879802905272,37.48179084423828Q22.581396102905273,35.87316384423828,22.581396102905273,34.19069864423828Z" fill-rule="evenodd" fill="#D6DCE8" fill-opacity="1"/></g><g><path d="M37.73023319162598,44.75814148745117C40.63255929162598,42.89767638745117,44.05581429162598,41.85581588745117,47.70232629162598,41.85581588745117C57.674421291625976,41.85581588745117,65.78604729162598,49.893025387451175,65.78604729162598,59.86511788745118C65.78604729162598,69.83720988745117,57.674421291625976,77.87441988745118,47.70232629162598,77.87441988745118C37.73023319162598,77.87441988745118,29.618604409025977,69.83720988745117,29.618604409025977,59.86511788745118C29.469767201625977,53.53953688745117,32.744185891625975,48.03256038745117,37.73023319162598,44.75814148745117Z" fill="#D6DCE8" fill-opacity="1"/><path d="M61.18881229162598,73.31842388745117Q66.78604729162598,67.75299288745117,66.78604729162598,59.86511988745117Q66.78604729162598,51.97724688745117,61.18881229162598,46.41181368745117Q55.601066291625976,40.85581588745117,47.70232629162598,40.85581588745117Q41.964863291625974,40.85581588745117,37.18130449162598,43.92227528745117Q28.384336591625978,49.69938418745117,28.618605141625977,59.87678488745117Q28.622741941625975,67.75710688745117,34.21584029162598,73.31842388745117Q39.803586291625976,78.87442388745117,47.70232629162598,78.87442388745117Q55.60106829162598,78.87442388745117,61.18881229162598,73.31842388745117ZM59.778635291625974,47.83005098745117Q64.78604729162598,52.809012887451175,64.78604729162598,59.86511988745117Q64.78604729162598,66.92122688745117,59.778635291625974,71.90018688745117Q54.775978291625975,76.87442388745117,47.70232629162598,76.87442388745117Q40.62867929162598,76.87442388745117,35.626019491625975,71.90018688745117Q30.618602791625978,66.92122088745117,30.618602191625975,59.86511988745117L30.618604391625976,59.85335588745117L30.618327691625975,59.841596887451175Q30.404766741625977,50.765253987451175,38.27916149162598,45.594013687451174Q42.55085829162598,42.85581588745117,47.70232629162598,42.85581588745117Q54.775978291625975,42.85581588745117,59.778635291625974,47.83005098745117Z" fill-rule="evenodd" fill="#AAB2C5" fill-opacity="1"/></g><g><path d="M51.054141486083985,60.77302361904297L51.065303486083984,60.78046511904297L51.077210486083985,60.79534911904297C52.01116348608399,61.62139601904297,53.50325748608398,61.66604711904297,54.405211486083985,60.758139619042964C55.29079148608398,59.87255861904297,55.29079148608398,58.36186031904297,54.405211486083985,57.476279219042965L49.398326886083986,52.46790676904297C49.175070786083985,52.14790674904297,48.85879228608398,51.95441838904297,48.55888558608399,51.842790459042966C48.23144338608398,51.72372068504297,47.877954986083985,51.67906951904297,47.553489686083985,51.67906951904297C47.19851298608398,51.67906951904297,46.853210886083986,51.80558114904297,46.60614108608399,51.93209278904297C46.350141486083984,52.05860441904297,46.09265228608398,52.23720907904297,45.91032698608399,52.41581374904297L40.904187676083986,57.424186219042966C40.590141116083984,57.64000031904297,40.39962947608399,57.95255851904297,40.288001586083986,58.22046521904297C40.164466698083984,58.52558131904297,40.111629486083984,58.845582019042965,40.111629486083984,59.12093071904297C40.111629486083984,59.71628001904297,40.36242020608398,60.27441881904297,40.849862036083984,60.758139619042964L40.865489956083984,60.78046511904297L40.88186204608398,60.79534911904297C41.81432728608399,61.62139601904297,43.302699286083985,61.66604711904297,44.20465278608398,60.76558211904297L45.24651338608398,59.760930019042966L45.24651338608398,66.19069851904297C45.24651338608398,67.49302351904296,46.32335038608399,68.57209351904297,47.627908686083984,68.57209351904297C48.93172268608399,68.57209351904297,50.009304086083986,67.49302351904296,50.009304086083986,66.19069851904297L50.009304086083986,59.760930019042966L51.054141486083985,60.77302361904297Z" fill="#FFFFFF" fill-opacity="1"/><path d="M55.11232048608399,61.46524811904297Q55.113480486083986,61.46408271904297,55.114640486083985,61.46291541904297Q56.069395486083984,60.50647731904297,56.069395486083984,59.11720941904297Q56.069395486083984,57.72625211904297,55.112318486083986,56.76917361904297L50.160629486083984,51.816011939042966Q49.69512848608399,51.198686689042965,48.90771388608398,50.90560412904297Q48.28482718608399,50.67906951904297,47.553490186083984,50.67906951904297Q46.85914418608398,50.67906951904297,46.150368686083986,51.04199617904297Q45.612528286083986,51.30767684904297,45.210546486083985,51.70145565504297L40.25400632608398,56.66012911904297Q39.67412096608398,57.09377951904297,39.36492496608398,57.83584971904297Q39.111629486083984,58.461321819042965,39.111629486083984,59.12093021904297Q39.111629486083984,60.39861771904297,40.07868237808398,61.40024761904297L40.110246238783986,61.44533921904297L40.20918212808398,61.53528211904297Q41.21199388608398,62.423757519042965,42.55160568608398,62.427902519042966Q43.499759886083986,62.43083551904297,44.24651338608398,61.99132251904297L44.24651338608398,66.19069751904297Q44.24651338608398,67.58185151904297,45.24066638608399,68.57664651904297Q46.23547168608398,69.57209351904297,47.627908686083984,69.57209351904297Q49.01985168608398,69.57209351904297,50.014796286083985,68.57672351904297Q51.00930348608399,67.58178751904296,51.00930348608399,66.19069751904297L51.00930348608399,61.97439451904297Q51.79195648608398,62.42549451904297,52.751666486083984,62.42697651904297Q54.153055486083986,62.42913951904297,55.11232048608399,61.46524811904297ZM54.06939648608399,59.11720941904297Q54.06939648608399,59.67974091904297,53.69810348608399,60.05103301904297L53.69578148608399,60.05336281904297Q53.323743486083984,60.427857419042965,52.754753486083985,60.42697901904297Q52.208325486083986,60.42613501904297,51.79792648608398,60.09545901904297L51.74919148608399,60.03453631904297L51.68454348608398,59.99143881904297L49.00930308608398,57.40003871904297L49.009304086083986,66.19069751904297Q49.009304086083986,66.75361051904297,48.60027788608399,67.16281451904297Q48.19117448608398,67.57209251904297,47.627908686083984,67.57209251904297Q47.06427578608398,67.57209251904297,46.65533638608399,67.16289051904297Q46.24651338608398,66.75380251904296,46.24651338608398,66.19069751904297L46.24651338608398,57.40745491904297L43.498129586083984,60.057891819042965Q43.12573788608398,60.429669419042966,42.55779288608399,60.427912719042965Q42.006336186083985,60.42620661904297,41.60265158608399,60.09635641904297L41.554254486083984,60.04832841904297Q41.111629486083984,59.609082719042966,41.111629486083984,59.12093021904297Q41.111629486083984,58.85084251904297,41.211078486083984,58.60508011904297Q41.31525218608398,58.35506391904297,41.47055108608399,58.24834151904297L41.546394586083984,58.19622131904297L46.61010738608398,53.130171919042965Q46.784379486083985,52.95945581904297,47.06191298608398,52.82218941904297Q47.341418286083986,52.67906951904297,47.553490186083984,52.67906951904297Q47.932478386083986,52.67906951904297,48.21005728608398,52.779976919042966Q48.462203986083985,52.87382831904297,48.57819938608398,53.04008821904297L48.62870688608398,53.11248191904297L53.69810348608399,58.18338631904297Q54.06939648608399,58.55467891904297,54.06939648608399,59.11720941904297Z" fill-rule="evenodd" fill="#AAB2C5" fill-opacity="1"/></g><g><path d="M88.48372648173829,27.046510656958006C90.16856388173828,27.046510656958006,91.53488918173828,25.677208456958006,91.53488918173828,23.995347956958007C91.53488918173828,22.306045756958007,90.16856388173828,20.944185256958008,88.48372648173829,20.944185256958008C86.79814518173828,20.944185256958008,85.43256378173828,22.306045756958007,85.43256378173828,23.995347956958007C85.43256378173828,25.677208456958006,86.79814518173828,27.046510656958006,88.48372648173829,27.046510656958006Z" fill="#F1F3F9" fill-opacity="1"/></g><g><path d="M92.9488332046875,15.139534428479003C94.0993450046875,15.139534428479003,95.0325541046875,14.201860228479005,95.0325541046875,13.055813528479003C95.0325541046875,11.902325148479004,94.0993450046875,10.972092628479004,92.9488332046875,10.972092628479004C91.7975774446875,10.972092628479004,90.8651123046875,11.902325148479004,90.8651123046875,13.055813528479003C90.8651123046875,14.201860228479005,91.7975774446875,15.139534428479003,92.9488332046875,15.139534428479003Z" fill="#F1F3F9" fill-opacity="1"/></g><g><path d="M8.558139540136718,21.98604722297363C9.708651340136718,21.98604722297363,10.641860440136718,21.04837302297363,10.641860440136718,19.902326322973632C10.641860440136718,18.748837942973633,9.708651340136718,17.818605422973633,8.558139540136718,17.818605422973633C7.406883780136718,17.818605422973633,6.474418640136719,18.748837942973633,6.474418640136719,19.902326322973632C6.474418640136719,21.04837302297363,7.406883780136718,21.98604722297363,8.558139540136718,21.98604722297363Z" fill="#F1F3F9" fill-opacity="1"/></g><g><path d="M7.7395344,63.95813847685547Q7.7395344,64.14824767685548,7.7209005,64.33744147685547Q7.7022662,64.52663567685546,7.6651773,64.71309187685547Q7.628089,64.89954857685547,7.5729027,65.08147237685547Q7.5177174,65.26339527685546,7.4449649,65.43903347685547Q7.3722134,65.61467167685547,7.2825966,65.78233337685546Q7.1929798,65.94999507685547,7.0873604,66.10806517685546Q6.9817419,66.26613617685547,6.8611374,66.41309257685546Q6.7405334,66.56004907685546,6.6061053,66.69447617685547Q6.4716778,66.82890417685547,6.3247213,66.94950817685547Q6.1777649,67.07011227685547,6.0196939,67.17573117685546Q5.8616238,67.28135107685547,5.6939621,67.37096787685547Q5.5263004,67.46058467685546,5.3506622,67.53333617685547Q5.175024,67.60608867685546,4.9931011,67.66127397685547Q4.8111777,67.71646027685547,4.6247211,67.75354817685547Q4.4382648,67.79063697685547,4.2490706,67.80927177685547Q4.0598764,67.82790567685547,3.8697672,67.82790567685547Q3.6796579,67.82790567685547,3.4904637,67.80927177685547Q3.3012695,67.79063747685547,3.1148129,67.75354857685547Q2.9283562,67.71646027685547,2.746433,67.66127397685547Q2.5645094,67.60608867685546,2.3888712,67.53333617685547Q2.213233,67.46058467685546,2.0455716,67.37096787685547Q1.8779099,67.28135107685547,1.7198396,67.17573167685546Q1.5617695,67.07011317685547,1.4148128,66.94950867685547Q1.2678561,66.82890467685547,1.1334285,66.69447657685546Q0.99900079,66.56004907685546,0.87839663,66.41309257685546Q0.75779247,66.26613617685547,0.65217328,66.10806517685546Q0.54655415,65.94999507685547,0.45693716,65.78233337685546Q0.36732018,65.61467167685547,0.29456842,65.43903347685547Q0.22181669,65.26339527685546,0.16663083,65.08147237685547Q0.11144499,64.89954897685547,0.074356474,64.71309237685547Q0.037267968,64.52663607685547,0.018633984,64.33744187685546Q0,64.14824767685548,0,63.95813847685547Q0,63.76802917685547,0.018633984,63.57883497685547Q0.037267968,63.38964077685547,0.074356474,63.203184176855466Q0.11144499,63.01672747685547,0.16663083,62.83480427685547Q0.22181669,62.65288067685547,0.29456842,62.477242476855466Q0.36732018,62.30160427685547,0.45693716,62.13394287685547Q0.54655415,61.96628117685547,0.65217328,61.80821087685547Q0.75779247,61.650140776855466,0.87839663,61.50318407685547Q0.99900079,61.35622737685547,1.1334285,61.22179977685547Q1.2678561,61.087372066855465,1.4148128,60.966767906855466Q1.5617694,60.84616374685547,1.7198395,60.74054455685547Q1.8779099,60.63492542685547,2.0455716,60.54530843685547Q2.213233,60.45569145685547,2.3888712,60.382939696855466Q2.5645094,60.310187966855466,2.7464328,60.25500210685547Q2.9283562,60.19981626685547,3.1148126,60.16272775085547Q3.3012695,60.12563924485547,3.4904637,60.107005260855466Q3.6796579,60.08837127685547,3.8697672,60.08837127685547Q4.0598764,60.08837127685547,4.2490702,60.107005260855466Q4.4382644,60.12563924485547,4.6247206,60.16272775085547Q4.8111773,60.19981626685547,4.9931011,60.25500210685547Q5.175024,60.310187966855466,5.3506622,60.382939696855466Q5.5263004,60.45569145685547,5.6939621,60.54530843685547Q5.8616238,60.63492542685547,6.0196939,60.74054455685547Q6.1777649,60.84616374685547,6.3247213,60.966767906855466Q6.4716778,61.087372066855465,6.6061049,61.22179977685547Q6.7405329,61.35622737685547,6.8611369,61.50318407685547Q6.981741,61.65014067685547,7.0873599,61.80821077685547Q7.1929798,61.96628117685547,7.2825966,62.13394287685547Q7.3722134,62.30160427685547,7.4449649,62.477242476855466Q7.5177174,62.65288067685547,7.5729027,62.83480407685547Q7.628089,63.01672747685547,7.6651769,63.20318387685547Q7.7022657,63.38964077685547,7.7209005,63.57883497685547Q7.7395344,63.76802917685547,7.7395344,63.95813847685547Z" fill="#F1F3F9" fill-opacity="1"/></g></g></svg>