<svg xmlns="http://www.w3.org/2000/svg" xmlns:xlink="http://www.w3.org/1999/xlink" fill="none" version="1.1" width="18" height="18" viewBox="0 0 18 18"><defs><clipPath id="master_svg0_13_04298"><rect x="0" y="0" width="18" height="18" rx="0"/></clipPath></defs><g clip-path="url(#master_svg0_13_04298)"><rect x="0" y="0" width="18" height="18" rx="0" fill="#0084FF" fill-opacity="1"/><g><path d="M13.65658590625,1.7608795166015625L2.5044115062500003,1.7608795166015625C1.87832462625,1.7608795166015625,1.36962890625,2.2695751166015627,1.36962890625,2.8956623166015625L1.36962890625,16.865229516601563C1.36962890625,17.491317516601562,1.87832462625,18.000011516601564,2.5044115062500003,18.000011516601564L13.61745490625,18.000011516601564C14.24354190625,18.000011516601564,14.75223590625,17.491317516601562,14.75223590625,16.865229516601563L14.75223590625,2.8956623166015625C14.79136790625,2.2695753566015626,14.28267290625,1.7608796507120126,13.65658590625,1.7608795166015625ZM4.3044116062499995,4.891314516601563L4.3044116062499995,4.460879816601563C4.3044116062499995,4.343488016601563,4.42180280625,4.186966616601563,4.57832480625,4.186966616601563L6.06528090625,4.186966616601563C6.22180320625,4.186966616601563,6.33919480625,4.265227816601563,6.33919480625,4.460879816601563L6.33919480625,4.695662216601562L8.139193506249999,4.695662216601562C8.33484600625,4.695662216601562,8.49136780625,4.813053416601562,8.49136780625,4.9695756166015626L8.49136780625,6.847836016601563C8.49136780625,7.004358316601563,8.33484600625,7.1217494166015625,8.139193506249999,7.1217494166015625L4.6565854062500005,7.1217494166015625C4.46093370625,7.1217494166015625,4.3044116062499995,7.004358316601563,4.3044116062499995,6.847836016601563L4.3044116062499995,4.891314516601563ZM6.61310670625,10.447836916601563C6.61310670625,10.643487916601563,6.45658540625,10.839141816601563,6.22180320625,10.839141816601563L5.04788950625,10.839141816601563L5.04788950625,12.952185516601563L6.18267250625,12.952185516601563C6.37832400625,12.952185516601563,6.57397650625,13.108706516601563,6.57397650625,13.343488516601562C6.57397650625,13.578270516601563,6.41745470625,13.734793516601563,6.18267250625,13.734793516601563L4.3044116062499995,13.734793516601563L4.3044116062499995,8.765227816601563C4.3044116062499995,8.569575316601561,4.46093300625,8.373922816601564,4.695715706250001,8.373922816601564C4.89136770625,8.373922816601564,5.08702020625,8.530444616601564,5.08702020625,8.765227816601563L5.08702020625,10.134793316601563L6.22180320625,10.134793316601563C6.41745470625,10.056532816601562,6.61310670625,10.213053716601562,6.61310670625,10.447836916601563ZM11.89571590625,13.343489516601563C11.89571590625,13.617402516601562,11.66093490625,13.813055516601562,11.42614990625,13.813055516601562L7.47397710625,13.813055516601562C7.20006370625,13.813055516601562,7.00441120625,13.578273516601563,7.00441120625,13.343489516601563L7.00441120625,13.147837516601562C7.00441120625,12.873925516601563,7.23919490625,12.678273516601562,7.47397710625,12.678273516601562L11.42614990625,12.678273516601562C11.70006490625,12.678273516601562,11.89571690625,12.913055516601563,11.89571690625,13.147836516601563L11.89571590625,13.343489516601563ZM11.89571590625,10.291315116601563C11.89571590625,10.565228416601563,11.66093490625,10.760881416601563,11.42614990625,10.760881416601563L7.47397710625,10.760881416601563C7.20006370625,10.760881416601563,7.00441120625,10.526098216601563,7.00441120625,10.291315116601563L7.00441120625,10.095665016601563C7.00441120625,9.821751616601562,7.23919490625,9.626098616601563,7.47397710625,9.626098616601563L11.42614990625,9.626098616601563C11.70006490625,9.626098616601563,11.89571690625,9.860880816601563,11.89571690625,10.095663116601562L11.89571590625,10.291315116601563Z" fill="#FFFFFF" fill-opacity="1" style="mix-blend-mode:passthrough"/></g><g><path d="M3.20849609375,0.43043482C3.20849609375,0.70434773,3.40414823375,0.86086965,3.63893082375,0.86086965L14.94762709375,0.86086965C15.33893009375,0.86086965,15.65197409375,1.173913,15.65197409375,1.5652174L15.65197409375,15.769564C15.65197409375,16.043476,15.84762809375,16.199999,16.08240909375,16.199999L16.160668093749997,16.199999C16.434581093749998,16.199999,16.59110309375,16.004347,16.59110309375,15.769564L16.59110309375,1.173913C16.59110309375,0.5086956,16.04327909375,0,15.41719109375,0L3.63893112375,0C3.40414850375,0,3.2084963619709,0.19565217,3.20849609375,0.43043482Z" fill="#FFFFFF" fill-opacity="1" style="mix-blend-mode:passthrough"/></g></g></svg>